<svg width="28" height="28" viewBox="0 0 28 28" fill="none" xmlns="http://www.w3.org/2000/svg">
<g clip-path="url(#clip0_230_14)">
<path d="M19.2036 14.2905C20.3166 13.0506 21 11.4179 21 9.625C21 5.76538 17.8596 2.625 14 2.625C10.1404 2.625 7 5.76538 7 9.625C7 13.4846 10.1404 16.625 14 16.625C15.3606 16.625 16.6276 16.2286 17.7039 15.554C21.5101 16.9881 24.1307 20.4715 24.4641 24.5H3.53675C3.76337 21.7884 5.03562 19.2596 7.105 17.4554C7.46987 17.1377 7.5075 16.5856 7.18988 16.2208C6.87313 15.8568 6.32013 15.8182 5.95525 16.1359C3.28213 18.4651 1.75 21.8321 1.75 25.375C1.75 25.8589 2.142 26.25 2.625 26.25H25.375C25.8589 26.25 26.25 25.8589 26.25 25.375C26.25 20.5747 23.4675 16.2881 19.2036 14.2905ZM8.75 9.625C8.75 6.72962 11.1046 4.375 14 4.375C16.8954 4.375 19.25 6.72962 19.25 9.625C19.25 12.5204 16.8954 14.875 14 14.875C11.1046 14.875 8.75 12.5204 8.75 9.625Z" fill="black"/>
</g>
<defs>
<clipPath id="clip0_230_14">
<rect width="28" height="28" fill="white"/>
</clipPath>
</defs>
</svg>
