<svg width="16" height="16" viewBox="0 0 16 16" fill="none" xmlns="http://www.w3.org/2000/svg">
<path d="M1.83331 11.9998H10.1666C10.4428 11.9998 10.6666 12.2237 10.6666 12.4998C10.6666 12.753 10.4785 12.9622 10.2345 12.9952L10.1666 12.9998H1.83331C1.55717 12.9998 1.33331 12.776 1.33331 12.4998C1.33331 12.2467 1.52141 12.0375 1.76547 12.0044L1.83331 11.9998H10.1666H1.83331ZM1.83331 7.66651H14.1666C14.4428 7.66651 14.6666 7.89037 14.6666 8.16651C14.6666 8.41964 14.4785 8.62884 14.2345 8.66191L14.1666 8.66651H1.83331C1.55717 8.66651 1.33331 8.44264 1.33331 8.16651C1.33331 7.91337 1.52141 7.70417 1.76547 7.67104L1.83331 7.66651H14.1666H1.83331ZM1.83331 3.33533H12.1666C12.4428 3.33533 12.6666 3.55919 12.6666 3.83533C12.6666 4.08846 12.4785 4.29765 12.2345 4.33076L12.1666 4.33533H1.83331C1.55717 4.33533 1.33331 4.11147 1.33331 3.83533C1.33331 3.58219 1.52141 3.373 1.76547 3.33989L1.83331 3.33533H12.1666H1.83331Z" fill="white"/>
</svg>
