<svg width="30" height="30" viewBox="0 0 30 30" fill="none" xmlns="http://www.w3.org/2000/svg">
<circle cx="15" cy="15" r="14" stroke="black" stroke-width="2"/>
<path fill-rule="evenodd" clip-rule="evenodd" d="M12 16H18C20.7614 16 23 18.2386 23 21C23 21.5523 22.5523 22 22 22C21.4872 22 21.0645 21.614 21.0067 21.1166L20.9949 20.8237C20.907 19.3072 19.6928 18.093 18.1763 18.0051L18 18H12C10.3431 18 9 19.3431 9 21C9 21.5523 8.55228 22 8 22C7.44772 22 7 21.5523 7 21C7 18.3112 9.12231 16.1182 11.7831 16.0046L12 16H18H12ZM15 6C17.7614 6 20 8.23858 20 11C20 13.7614 17.7614 16 15 16C12.2386 16 10 13.7614 10 11C10 8.23858 12.2386 6 15 6ZM15 8C13.3431 8 12 9.34315 12 11C12 12.6569 13.3431 14 15 14C16.6569 14 18 12.6569 18 11C18 9.34315 16.6569 8 15 8Z" fill="black"/>
</svg>
